<?xml version="1.0" encoding="UTF-8" standalone="no"?>
<!-- Created with Inkscape (http://www.inkscape.org/) -->

<svg
   width="87.002007mm"
   height="18.520832mm"
   viewBox="0 0 87.002007 18.520832"
   version="1.1"
   id="svg1"
   inkscape:version="1.3.2 (091e20e, 2023-11-25, custom)"
   sodipodi:docname="logoName_26 Aug 2024.svg"
   xmlns:inkscape="http://www.inkscape.org/namespaces/inkscape"
   xmlns:sodipodi="http://sodipodi.sourceforge.net/DTD/sodipodi-0.dtd"
   xmlns:xlink="http://www.w3.org/1999/xlink"
   xmlns="http://www.w3.org/2000/svg"
   xmlns:svg="http://www.w3.org/2000/svg">
  <sodipodi:namedview
     id="namedview1"
     pagecolor="#ffffff"
     bordercolor="#666666"
     borderopacity="1.0"
     inkscape:showpageshadow="2"
     inkscape:pageopacity="0.0"
     inkscape:pagecheckerboard="0"
     inkscape:deskcolor="#d1d1d1"
     inkscape:document-units="mm"
     inkscape:zoom="2.0293631"
     inkscape:cx="160.14877"
     inkscape:cy="63.813125"
     inkscape:window-width="2560"
     inkscape:window-height="1377"
     inkscape:window-x="-8"
     inkscape:window-y="-8"
     inkscape:window-maximized="1"
     inkscape:current-layer="layer1" />
  <defs
     id="defs1">
    <linearGradient
       inkscape:collect="always"
       xlink:href="#linearGradient6214"
       id="linearGradient887"
       gradientUnits="userSpaceOnUse"
       gradientTransform="matrix(1.0032464,0,0,1.0971437,16.22237,-40.506715)"
       x1="72.004616"
       y1="241.86554"
       x2="158.18463"
       y2="161.25502" />
    <linearGradient
       inkscape:collect="always"
       id="linearGradient6214">
      <stop
         style="stop-color:#401c93;stop-opacity:1;"
         offset="0"
         id="stop6210" />
      <stop
         style="stop-color:#d7118a;stop-opacity:1"
         offset="0.7051608"
         id="stop20464" />
      <stop
         style="stop-color:#401c93;stop-opacity:0.98823529"
         offset="1"
         id="stop6212" />
    </linearGradient>
    <linearGradient
       inkscape:collect="always"
       xlink:href="#linearGradient138958"
       id="linearGradient889"
       gradientUnits="userSpaceOnUse"
       gradientTransform="matrix(1.0032464,0,0,1.0971437,-149.6571,-61.700541)"
       x1="377.25934"
       y1="95.816269"
       x2="221.94934"
       y2="276.54263" />
    <linearGradient
       inkscape:collect="always"
       id="linearGradient138958">
      <stop
         style="stop-color:#401c93;stop-opacity:1;"
         offset="0"
         id="stop138954" />
      <stop
         style="stop-color:#401c93;stop-opacity:0;"
         offset="1"
         id="stop138956" />
    </linearGradient>
  </defs>
  <g
     inkscape:label="Layer 1"
     inkscape:groupmode="layer"
     id="layer1"
     transform="translate(-60.589582,-139.17083)">
    <rect
       style="fill:#ececec;fill-rule:evenodd;stroke-width:0.235601"
       id="rect1"
       width="92.604164"
       height="19.84375"
       x="56.062336"
       y="107.56145" />
    <g
       id="g1">
      <g
         id="g879"
         transform="matrix(0.18580917,0,0,0.20320015,33.81455,130.00758)">
        <path
           id="path875"
           style="fill:url(#linearGradient887);fill-opacity:1;stroke-width:0.277586"
           transform="matrix(0.99676409,0,0,0.91145762,68.850008,-84.606409)"
           d="m 147.75586,142.30078 c -10.19654,0.002 -18.6625,1.983 -28.0625,6.56641 l -2.58008,1.25781 -4.58789,-1.29102 c -9.32071,-2.62268 -10.51848,-2.84675 -15.335937,-2.86914 -3.756044,-0.0174 -4.682793,0.0717 -6.503906,0.62696 -5.679308,1.73148 -10.504831,5.67401 -12.837891,10.48828 -1.533703,3.1648 -1.944661,5.04143 -2.091797,9.54883 -0.07973,2.44228 -0.0323,4.27028 0.115235,4.43164 0.157931,0.1727 0.585178,-0.18387 1.152344,-0.96289 2.817421,-3.86983 5.078533,-5.85285 8.90625,-7.81446 3.883822,-1.99037 9.604369,-3.14981 15.556642,-3.15039 h 2.30664 l -4.562501,5.01563 c -11.053799,12.1475 -17.748838,24.81556 -19.039063,36.02539 -0.406916,3.53535 -0.203301,10.88833 0.375,13.5332 2.134598,9.76264 7.423567,16.2797 15.902344,19.59375 2.293823,0.89658 5.47201,1.69376 7.88672,1.97656 1.9874,0.23281 6.0828,0.18267 8.35156,-0.10156 9.39619,-1.17712 17.3177,-5.15365 22.51172,-11.29883 0.98861,-1.16964 1.83121,-2.0748 1.87305,-2.01172 0.0418,0.0631 0.40138,0.96418 0.79882,2.00196 1.59294,4.15771 4.22279,7.08544 7.85352,8.74414 1.75628,0.80235 2.39815,0.9361 5.06445,1.05273 4.8223,0.21095 8.70569,-1.13784 11.94532,-4.14648 1.94359,-1.80502 4.27993,-5.53263 3.11718,-4.97266 -2.91417,1.40344 -3.87386,1.70714 -5.35547,1.69727 -0.88644,-0.006 -1.97022,-0.15866 -2.4082,-0.33985 -1.03102,-0.42651 -2.43829,-1.90596 -3.05273,-3.20898 -1.94774,-4.13043 -2.03876,-12.65784 -0.22657,-21.15625 l 0.57618,-2.70703 1.45117,0.16406 c 1.84329,0.20805 5.37833,-0.22534 7.24414,-0.88867 5.0413,-1.79227 8.82579,-6.1433 10.71289,-12.31641 0.37465,-1.22557 0.68164,-2.3677 0.68164,-2.53711 0,-0.16941 -0.66839,0.0165 -1.48633,0.41211 -5.26093,2.5444 -12.66288,2.10941 -27.18164,-1.59375 -7.95276,-2.02844 -10.74814,-2.44243 -14.99805,-2.22265 -3.77924,0.19544 -5.47886,0.56909 -8.0957,1.77539 -3.67833,1.69561 -6.63259,4.68416 -8.4707,8.57031 -1.09853,2.32252 -1.98517,4.91792 -1.76367,5.16016 0.074,0.0809 0.57273,-0.3206 1.10937,-0.89063 1.14479,-1.216 4.23422,-2.97408 6.24805,-3.55664 4.17814,-1.20864 9.09147,-0.76059 15.9668,1.45508 1.83597,0.59167 1.84371,0.0909 -0.10547,6.68555 -3.44181,11.64454 -9.47116,19.54106 -17.10938,22.40429 -1.7984,0.67414 -2.54462,0.79131 -5.03125,0.79102 -2.71996,-3.2e-4 -3.06367,-0.0679 -5.01953,-0.97657 -1.57239,-0.73032 -2.47274,-1.38457 -3.58398,-2.60546 -2.82947,-3.10865 -3.78437,-6.1138 -3.77735,-11.90235 0.005,-4.07879 0.26158,-6.2109 1.24024,-10.33008 2.55085,-10.73659 9.44556,-24.03995 16.73242,-32.28515 l 2.37109,-2.68164 1.99024,0.42187 c 2.32752,0.49417 8.86554,1.71245 12.47656,2.32422 10.29472,1.7441 18.5708,1.8058 22.90039,0.17383 5.35963,-2.02025 8.16084,-5.29292 8.37695,-9.78906 0.13527,-2.81403 -0.74421,-5.01247 -2.86132,-7.15235 -3.69454,-3.73399 -8.53349,-5.14086 -17.66602,-5.13867 z m -0.31055,7.12695 c 0.59962,-0.012 1.17535,-0.007 1.69531,0.0156 0.69348,0.0302 1.28643,0.0929 1.70118,0.18945 2.4948,0.58087 3.19078,3.2637 1.40625,5.42383 -0.60905,0.73725 -1.48947,1.37248 -2.45508,1.77148 -1.98951,0.82241 -6.01924,1.00329 -8.93945,0.40235 -3.24739,-0.66826 -9.42188,-2.50358 -9.42188,-2.80078 0,-0.688 7.13979,-3.62611 10.88281,-4.47852 1.32341,-0.30137 3.33201,-0.48752 5.13086,-0.52344 z m -23.21289,84.37891 c -0.002,0.002 -0.005,0.002 -0.008,0.004 3e-5,0.004 -4e-5,0.005 0,0.0117 0.003,-0.005 0.005,-0.0102 0.008,-0.0156 z m 3.73828,3.0957 c -10e-4,0.004 -4.6e-4,0.008 -0.002,0.0117 8.6e-4,-0.001 5.5e-4,-0.003 0.002,-0.004 2e-5,-0.003 -10e-6,-0.005 0,-0.008 z m -4.77148,0.4961 c 0.004,0.0102 0.01,0.0192 0.0137,0.0293 1.3e-4,-0.001 -2.1e-4,-0.003 0,-0.004 0.001,-0.007 0.0108,0.0136 0.0176,0.0156 0.008,0.002 0.026,0.004 0.0312,0.002 v -0.002 c -0.0183,-0.0166 -0.0401,-0.0298 -0.0625,-0.041 z m 0.15234,0.33008 c 0.015,0.03 0.0253,0.0624 0.041,0.0918 -0.008,-0.0264 -0.0162,-0.0528 -0.0293,-0.0742 -0.004,-0.006 -0.007,-0.0121 -0.0117,-0.0176 z m 0.5,0.64648 c -0.0145,0.002 -0.0187,0.008 -0.01,0.0234 0.0114,-0.004 0.024,-0.008 0.0371,-0.0117 4e-5,-0.003 -3e-5,-0.006 0,-0.01 v -0.002 c -0.0105,-10e-4 -0.0209,-7.7e-4 -0.0273,0 z m 2.27344,1.78125 c -0.0115,0.0138 -0.0248,0.0264 -0.0371,0.0371 0.01,-0.003 0.0229,-0.007 0.0312,-0.01 10e-4,-0.0108 0.004,-0.0167 0.006,-0.0273 z m -0.34766,0.0918 c 7.7e-4,0.005 5.2e-4,0.008 0.002,0.0137 -1e-5,-0.009 0.003,-0.007 0.004,-0.0137 -0.002,4.5e-4 -0.004,-3.5e-4 -0.006,0 z m 0.1836,1.92578 0.0117,0.12695 0.006,-0.10937 c -0.006,-0.005 -0.0121,-0.0115 -0.0176,-0.0176 z" />
        <path
           id="path877"
           style="fill:url(#linearGradient889);fill-opacity:1;stroke-width:0.277586"
           transform="matrix(0.99676409,0,0,0.91145762,68.850008,-84.606409)"
           d="m 103.79297,159.13281 -2.27735,2.28516 c -1.25286,1.25677 -2.815675,2.90028 -3.472651,3.65234 -1.187774,1.35969 -1.19028,1.3668 -0.398438,1.14844 3.180849,-0.87716 4.513029,-1.06378 8.626949,-1.20703 2.55488,-0.089 6.31743,-0.0194 8.36133,0.1543 l 3.7168,0.3164 1.63281,-1.95508 c 0.8982,-1.07447 1.60313,-1.98683 1.56641,-2.02929 -0.17992,-0.20803 -11.32319,-1.82322 -14.32617,-2.07617 z m -27.646486,2.63281 c -0.317477,0.3472 -0.662777,3.69901 -0.652343,6.33985 l 0.01172,2.75781 0.716797,-1.01562 c 0.394627,-0.55881 1.36907,-1.77396 2.164063,-2.69922 l 1.445312,-1.68164 -1.767578,-1.9336 c -0.972085,-1.06306 -1.835201,-1.85802 -1.917969,-1.76758 z m 13.667969,14.46876 c -0.349491,0 -4.279129,6.90014 -5.732422,10.0664 -3.391605,7.38924 -4.501265,12.78458 -4.285156,20.83203 0.143835,5.35573 0.719289,8.56614 2.1875,12.1875 3.360454,8.28857 10.632213,13.90069 20.173825,15.57227 0.72998,0.12799 3.65508,0.18618 6.50196,0.1289 5.48994,-0.11054 7.49757,-0.45274 12.07812,-2.06054 4.60581,-1.61667 9.53172,-4.68302 12.07031,-7.51367 l 1.1875,-1.32422 -3.41406,-3.74024 -3.41211,-3.74219 -1.75586,1.35547 c -2.43634,1.88092 -2.84741,2.1377 -4.80859,3.00586 -2.16827,0.95983 -2.37222,1.02003 -4.69531,1.37696 -5.36683,0.82459 -10.86065,-2.255 -13.04688,-7.31446 -1.09946,-2.54444 -1.46067,-4.75209 -1.4375,-8.78515 0.0229,-3.99579 0.52915,-7.54131 1.6836,-11.79102 l 0.80664,-2.97461 -6.982426,-7.63867 c -3.840478,-4.20216 -7.043697,-7.64062 -7.119141,-7.64062 z M 138.30859,193.25 c -0.49282,0.0417 -0.50793,0.51293 -0.69531,1.32812 -0.30254,1.31637 -1.59263,5.75909 -2.05273,7.07032 -0.1226,0.34942 0.0382,0.34262 1.00976,-0.0449 2.00186,-0.79878 6.38817,-0.80714 11.64063,-0.0215 2.55488,0.38219 4.89869,0.71384 5.20703,0.73633 0.47727,0.0349 0.60511,-0.20356 0.86328,-1.60938 0.32324,-1.76009 0.18318,-2.10926 -0.84961,-2.11914 -1.17849,-0.0108 -5.17763,-1.36105 -9.4668,-3.19726 -3.59851,-1.54054 -5.02262,-2.19622 -5.65625,-2.14258 z" />
      </g>
      <text
         xml:space="preserve"
         style="font-style:normal;font-variant:normal;font-weight:normal;font-stretch:normal;font-size:16.2351px;line-height:1.25;font-family:Belleza;-inkscape-font-specification:'Belleza, Normal';font-variant-ligatures:normal;font-variant-caps:normal;font-variant-numeric:normal;font-variant-east-asian:normal;letter-spacing:0px;fill:#401c93;fill-opacity:1;stroke-width:0.74438"
         x="87.792809"
         y="155.13356"
         id="text883"
         transform="scale(1.0117191,0.98841665)"><tspan
           sodipodi:role="line"
           id="tspan881"
           style="font-style:normal;font-variant:normal;font-weight:normal;font-stretch:normal;font-size:16.2351px;font-family:Belleza;-inkscape-font-specification:'Belleza, Normal';font-variant-ligatures:normal;font-variant-caps:normal;font-variant-numeric:normal;font-variant-east-asian:normal;fill:#401c93;fill-opacity:1;stroke-width:0.74438"
           x="87.792809"
           y="155.13356">monstyle</tspan></text>
      <text
         xml:space="preserve"
         style="font-size:22.0873px;line-height:1.25;font-family:Montserrat;-inkscape-font-specification:'Montserrat, @wght=400';font-variation-settings:'wght' 400;letter-spacing:0px;fill:#401c93;fill-opacity:1;stroke-width:1.18325"
         x="100.78789"
         y="124.80668"
         id="text1"
         transform="scale(0.78685414,1.2708836)"><tspan
           sodipodi:role="line"
           id="tspan1"
           style="fill:#401c93;fill-opacity:1;stroke-width:1.18325"
           x="100.78789"
           y="124.80668">-</tspan></text>
    </g>
    <g
       id="g2"
       transform="matrix(1.3314942,0,0,1.1592832,-43.876441,7.9807875)"
       style="fill:#e6e6e6">
      <text
         xml:space="preserve"
         style="font-size:4.9389px;line-height:1.25;font-family:Montserrat;-inkscape-font-specification:'Montserrat, @wght=400';font-variation-settings:'wght' 400;letter-spacing:0px;fill:#e6e6e6;stroke-width:0.264583"
         x="86.738884"
         y="147.15561"
         id="text3198"><tspan
           sodipodi:role="line"
           id="tspan3196"
           style="fill:#e6e6e6;stroke-width:0.264583"
           x="86.738884"
           y="147.15561">350x75</tspan><tspan
           sodipodi:role="line"
           style="fill:#e6e6e6;stroke-width:0.264583"
           x="86.738884"
           y="153.32924"
           id="tspan3200">Font = </tspan></text>
      <text
         xml:space="preserve"
         style="font-size:4.9389px;line-height:1.25;font-family:Montserrat;-inkscape-font-specification:'Montserrat, @wght=400';font-variation-settings:'wght' 400;letter-spacing:0px;fill:#e6e6e6;stroke-width:0.264583"
         x="105.67115"
         y="153.46637"
         id="text5250"><tspan
           sodipodi:role="line"
           id="tspan5248"
           style="fill:#e6e6e6;stroke-width:0.264583"
           x="105.67115"
           y="153.46637">Belleza</tspan></text>
    </g>
  </g>
</svg>
